M48
; DRILL file {KiCad 5.1.6-c6e7f7d~87~ubuntu18.04.1} date Sat Aug 22 16:06:18 2020
; FORMAT={-:-/ absolute / metric / decimal}
; #@! TF.CreationDate,2020-08-22T16:06:18+02:00
; #@! TF.GenerationSoftware,Kicad,Pcbnew,5.1.6-c6e7f7d~87~ubuntu18.04.1
FMAT,2
METRIC
T1C0.600
T2C0.750
T3C0.800
T4C1.000
T5C1.190
T6C1.350
T7C1.400
T8C1.500
T9C1.700
T10C2.000
T11C3.000
%
G90
G05
T1
X126.5Y-67.5
X129.6Y-61.08
X135.75Y-69.75
X139.0Y-82.75
X140.25Y-56.75
X141.75Y-84.75
X141.75Y-107.25
X144.8Y-122.75
X146.25Y-129.0
X165.5Y-62.25
X188.5Y-58.0
X188.5Y-69.5
X188.5Y-92.5
X188.5Y-104.0
X188.5Y-115.5
X188.5Y-127.0
X188.537Y-81.0
X197.25Y-116.5
X197.75Y-105.0
X198.75Y-128.0
X200.75Y-70.5
X202.5Y-80.5
X203.5Y-104.75
X204.0Y-92.25
X209.3Y-62.05
X209.5Y-119.25
X213.75Y-56.5
X214.0Y-102.75
X215.5Y-50.0
X218.5Y-81.0
X220.75Y-100.75
X222.25Y-64.5
X225.0Y-82.0
X228.5Y-50.0
X229.75Y-110.25
X235.5Y-73.0
X236.5Y-104.75
X240.0Y-56.5
X240.25Y-63.5
X241.7Y-78.95
X242.0Y-50.0
X242.5Y-118.5
X244.25Y-99.0
X247.25Y-84.5
X255.5Y-50.0
X258.0Y-83.25
X261.75Y-119.25
T2
X143.71Y-60.75
X144.98Y-62.02
X146.25Y-60.75
X137.75Y-61.75
X139.02Y-60.48
X140.29Y-61.75
T3
X133.0Y-89.0
X133.0Y-94.0
X167.5Y-50.38
X167.5Y-58.0
X170.04Y-50.38
X170.04Y-58.0
X172.58Y-50.38
X172.58Y-58.0
X175.12Y-50.38
X175.12Y-58.0
X177.66Y-50.38
X177.66Y-58.0
X180.2Y-50.38
X180.2Y-58.0
X182.74Y-50.38
X182.74Y-58.0
X185.28Y-50.38
X185.28Y-58.0
X115.5Y-61.0
X120.5Y-61.0
X149.5Y-124.0
X154.4Y-124.0
X122.75Y-104.51
X122.75Y-119.75
X125.29Y-104.51
X125.29Y-119.75
X127.83Y-104.51
X127.83Y-119.75
X130.37Y-104.51
X130.37Y-119.75
X132.91Y-104.51
X132.91Y-119.75
X135.45Y-104.51
X135.45Y-119.75
X137.99Y-104.51
X137.99Y-119.75
X140.53Y-104.51
X140.53Y-119.75
X143.07Y-104.51
X143.07Y-119.75
X145.61Y-104.51
X145.61Y-119.75
X148.15Y-104.51
X148.15Y-119.75
X150.69Y-104.51
X150.69Y-119.75
X153.23Y-104.51
X153.23Y-119.75
X155.77Y-104.51
X155.77Y-119.75
X158.31Y-104.51
X158.31Y-119.75
X160.85Y-104.51
X160.85Y-119.75
X163.39Y-104.51
X163.39Y-119.75
X165.93Y-104.51
X165.93Y-119.75
X168.47Y-104.51
X168.47Y-119.75
X171.01Y-104.51
X171.01Y-119.75
X174.75Y-86.5
X174.75Y-89.04
X174.75Y-91.58
X174.75Y-94.12
X174.75Y-96.66
X174.75Y-99.2
X174.75Y-101.74
X174.75Y-104.28
X182.37Y-86.5
X182.37Y-89.04
X182.37Y-91.58
X182.37Y-94.12
X182.37Y-96.66
X182.37Y-99.2
X182.37Y-101.74
X182.37Y-104.28
X139.9Y-65.9
X141.9Y-65.9
X136.75Y-82.75
X141.75Y-82.75
T4
X124.5Y-56.0
X129.5Y-56.0
X133.71Y-125.71
X133.71Y-128.25
X136.25Y-125.71
X136.25Y-128.25
X138.79Y-125.71
X138.79Y-128.25
T5
X156.42Y-131.75
X158.96Y-131.75
X161.5Y-131.75
X174.42Y-131.75
X176.96Y-131.75
X179.5Y-131.75
X165.46Y-131.75
X168.0Y-131.75
X170.54Y-131.75
T6
X109.75Y-43.5
X109.75Y-48.5
X109.75Y-58.5
X109.75Y-63.5
T7
X117.67Y-44.5
X122.75Y-44.5
X130.92Y-44.5
X136.0Y-44.5
T8
X109.35Y-78.25
X132.75Y-78.25
T9
X206.0Y-68.5
X209.5Y-69.5
X206.0Y-114.25
X209.5Y-115.25
X239.0Y-68.5
X242.5Y-69.5
X239.0Y-114.25
X242.5Y-115.25
T10
X202.5Y-76.5
X203.5Y-63.5
X205.5Y-81.5
X210.5Y-56.5
X213.0Y-88.0
X214.0Y-65.5
X215.5Y-53.5
X218.5Y-84.5
X222.5Y-72.5
X223.5Y-59.5
X225.0Y-77.5
X226.0Y-64.5
X202.5Y-122.25
X203.5Y-109.25
X205.5Y-127.25
X210.5Y-102.25
X213.0Y-133.75
X214.0Y-111.25
X215.5Y-99.25
X218.5Y-130.25
X222.5Y-118.25
X223.5Y-105.25
X225.0Y-123.25
X226.0Y-110.25
X235.5Y-76.5
X236.5Y-63.5
X238.5Y-81.5
X243.5Y-56.5
X246.0Y-88.0
X247.0Y-65.5
X248.5Y-53.5
X251.5Y-84.5
X255.5Y-72.5
X256.5Y-59.5
X258.0Y-77.5
X259.0Y-64.5
X235.5Y-122.25
X236.5Y-109.25
X238.5Y-127.25
X243.5Y-102.25
X246.0Y-133.75
X247.0Y-111.25
X248.5Y-99.25
X251.5Y-130.25
X255.5Y-118.25
X256.5Y-105.25
X258.0Y-123.25
X259.0Y-110.25
T11
X114.3Y-122.7
X159.2Y-42.7
X179.25Y-122.65
X259.25Y-42.7
T0
M30
